<svg width="86" height="86" viewBox="0 0 86 86" fill="none" xmlns="http://www.w3.org/2000/svg">
<path d="M76.9038 4.13458H9.09618C4.08046 4.13458 0 8.21521 0 13.2308V50.4422V56.2308C0 61.2463 4.08046 65.3269 9.09618 65.3269H31.0596L28.4134 78.5577H19.8462C18.9328 78.5577 18.1924 79.2981 18.1924 80.2115C18.1924 81.1249 18.9328 81.8653 19.8462 81.8653H66.1538C67.0672 81.8653 67.8076 81.1249 67.8076 80.2115C67.8076 79.2981 67.0672 78.5577 66.1538 78.5577H57.5866L54.9404 65.3269H76.9038C81.9194 65.3269 86 61.2465 86 56.2308V50.4422V13.2308C86 8.21521 81.9195 4.13458 76.9038 4.13458ZM31.7866 78.5577L34.4328 65.3269H51.5672L54.2134 78.5577H31.7866ZM82.6924 56.2308C82.6924 59.4225 80.0957 62.0193 76.9038 62.0193H9.09618C5.90444 62.0193 3.30764 59.4227 3.30764 56.2308V52.0962H82.6922V56.2308H82.6924ZM82.6924 48.7886H3.30764V45.4809H13.2307C14.1441 45.4809 14.8846 44.7405 14.8846 43.8271C14.8846 42.9137 14.1441 42.1733 13.2307 42.1733H3.30764V13.2308C3.30764 10.039 5.90427 7.44222 9.09618 7.44222H76.9038C80.0956 7.44222 82.6924 10.0389 82.6924 13.2308V48.7886Z" fill="white"/>
<path d="M43 53.75C41.1762 53.75 39.6924 55.2338 39.6924 57.0576C39.6924 58.8814 41.1762 60.3653 43 60.3653C44.8238 60.3653 46.3077 58.8814 46.3077 57.0576C46.3077 55.2338 44.8238 53.75 43 53.75Z" fill="white"/>
<path d="M56.5403 35.8085L53.032 32.3001L55.9556 29.3766C56.3808 28.9515 56.5417 28.3292 56.3759 27.7512C56.2101 27.1734 55.7438 26.731 55.1579 26.5956L39.9551 23.0872C39.3996 22.9594 38.8171 23.126 38.4136 23.5293C38.0105 23.9326 37.8434 24.5149 37.9715 25.0708L41.4802 40.2734C41.6155 40.8591 42.0579 41.3256 42.6359 41.4914C43.214 41.657 43.836 41.4961 44.2613 41.0711L47.1848 38.1475L50.6932 41.6558C51.0162 41.9788 51.4395 42.1402 51.8626 42.1402C52.2857 42.1402 52.7091 41.9788 53.032 41.6558L56.5403 38.1475C57.186 37.5016 57.186 36.4545 56.5403 35.8085ZM51.8626 38.1475L48.3542 34.6391C48.0312 34.3161 47.6079 34.1547 47.1848 34.1547C46.7617 34.1547 46.3382 34.3161 46.0154 34.6391L44.0324 36.6223L41.79 26.9055L51.5068 29.1477L49.5236 31.1307C48.8778 31.7766 48.8778 32.8239 49.5236 33.4697L53.032 36.9781L51.8626 38.1475Z" fill="white"/>
<path d="M36.1924 18.9689L34.5386 17.3151C33.8927 16.6693 32.8454 16.6693 32.1996 17.3151C31.5538 17.961 31.5538 19.0081 32.1996 19.6541L33.8536 21.3079C34.1766 21.6309 34.5999 21.7923 35.023 21.7923C35.4461 21.7923 35.8695 21.6309 36.1924 21.3079C36.8382 20.6622 36.8382 19.615 36.1924 18.9689Z" fill="white"/>
<path d="M32.968 23.4464H30.6292C29.7157 23.4464 28.9753 24.1868 28.9753 25.1002C28.9753 26.0136 29.7157 26.754 30.6292 26.754H32.968C33.8814 26.754 34.6218 26.0136 34.6218 25.1002C34.6218 24.1868 33.8814 23.4464 32.968 23.4464Z" fill="white"/>
<path d="M36.1924 28.892C35.5468 28.2461 34.4997 28.2461 33.8537 28.892L32.1998 30.5458C31.554 31.1916 31.554 32.2389 32.1998 32.8848C32.5228 33.2078 32.9461 33.3692 33.3692 33.3692C33.7923 33.3692 34.2158 33.2078 34.5386 32.8848L36.1924 31.2309C36.8383 30.5853 36.8383 29.538 36.1924 28.892Z" fill="white"/>
<path d="M47.7695 17.3151C47.1237 16.6693 46.0766 16.6693 45.4306 17.3151L43.7767 18.9689C43.1309 19.6148 43.1309 20.6621 43.7767 21.3079C44.0997 21.6309 44.523 21.7923 44.9463 21.7923C45.3696 21.7923 45.7929 21.6309 46.1157 21.3079L47.7695 19.6541C48.4154 19.0084 48.4154 17.9611 47.7695 17.3151Z" fill="white"/>
<path d="M39.9848 14.0906C39.0713 14.0906 38.3309 14.831 38.3309 15.7445V18.0833C38.3309 18.9967 39.0713 19.7371 39.9848 19.7371C40.8982 19.7371 41.6386 18.9967 41.6386 18.0833V15.7445C41.6386 14.831 40.8982 14.0906 39.9848 14.0906Z" fill="white"/>
<path d="M19.8131 43.5044C19.7933 43.3985 19.7602 43.2944 19.7189 43.1934C19.6776 43.0942 19.6263 42.9983 19.5667 42.9089C19.5073 42.8179 19.4377 42.7335 19.3616 42.6575C19.2855 42.5814 19.2012 42.512 19.1102 42.4524C19.0208 42.3929 18.9249 42.3415 18.8241 42.3002C18.7249 42.2589 18.6207 42.2258 18.5149 42.206C18.3016 42.163 18.0832 42.163 17.8699 42.206C17.7641 42.2258 17.6599 42.2589 17.5607 42.3002C17.4597 42.3415 17.3638 42.3927 17.2746 42.4524C17.1836 42.5118 17.0993 42.5814 17.0232 42.6575C16.9471 42.7335 16.8777 42.8179 16.8181 42.9089C16.7586 42.9983 16.7072 43.0942 16.6659 43.1934C16.6246 43.2944 16.5915 43.3985 16.5717 43.5044C16.5502 43.6102 16.5386 43.7194 16.5386 43.8269C16.5386 43.9344 16.5502 44.0435 16.5717 44.1494C16.5915 44.2552 16.6246 44.3593 16.6659 44.4586C16.7072 44.5595 16.7584 44.6554 16.8181 44.7446C16.8775 44.8357 16.9471 44.92 17.0232 44.9961C17.0993 45.0722 17.1836 45.1415 17.2746 45.2012C17.364 45.2606 17.4599 45.312 17.5607 45.3534C17.6599 45.3947 17.7641 45.4278 17.8699 45.4493C17.9757 45.4708 18.0849 45.4807 18.1924 45.4807C18.2999 45.4807 18.4091 45.4708 18.5149 45.4493C18.6207 45.4278 18.7249 45.3947 18.8241 45.3534C18.9251 45.312 19.021 45.2608 19.1102 45.2012C19.2012 45.1417 19.2855 45.0722 19.3616 44.9961C19.4377 44.92 19.5071 44.8357 19.5667 44.7446C19.6262 44.6553 19.6776 44.5594 19.7189 44.4586C19.7602 44.3593 19.7933 44.2552 19.8131 44.1494C19.8346 44.0435 19.8462 43.9344 19.8462 43.8269C19.8462 43.7194 19.8346 43.6102 19.8131 43.5044Z" fill="white"/>
</svg>
