<svg width="86" height="86" viewBox="0 0 86 86" fill="none" xmlns="http://www.w3.org/2000/svg">
<path d="M83.2164 30.4072L80.5289 23.6885C80.4634 23.5246 80.3662 23.3752 80.243 23.2489C80.1197 23.1226 79.9728 23.0218 79.8106 22.9523C79.6483 22.8828 79.474 22.8459 79.2975 22.8438C79.1211 22.8416 78.9459 22.8743 78.7821 22.9398L73.2206 25.1644C72.6135 24.1706 71.719 23.3845 70.6556 22.9099C70.4024 22.7973 70.1415 22.7028 69.875 22.6269V18.8125H75.25C75.4712 18.8125 75.689 18.7579 75.884 18.6535C76.079 18.5491 76.2453 18.3982 76.368 18.2142L81.3441 10.75H81.9688C82.3251 10.75 82.6669 10.6084 82.9189 10.3564C83.1709 10.1044 83.3125 9.76263 83.3125 9.40625V4.03125C83.3125 3.67487 83.1709 3.33308 82.9189 3.08108C82.6669 2.82907 82.3251 2.6875 81.9688 2.6875H4.03126C3.67487 2.6875 3.33309 2.82907 3.08108 3.08108C2.82908 3.33308 2.68751 3.67487 2.68751 4.03125V9.40625C2.68751 9.76263 2.82908 10.1044 3.08108 10.3564C3.33309 10.6084 3.67487 10.75 4.03126 10.75H4.65594L9.63201 18.2142C9.75472 18.3982 9.92097 18.5491 10.116 18.6535C10.311 18.7579 10.5288 18.8125 10.75 18.8125H16.125V22.6269C15.8585 22.7028 15.5976 22.7974 15.3443 22.9099C14.2808 23.3845 13.3864 24.1706 12.7792 25.1644L7.21779 22.9398C7.05394 22.8743 6.87877 22.8416 6.7023 22.8438C6.52583 22.8459 6.3515 22.8828 6.18929 22.9523C6.02707 23.0218 5.88014 23.1226 5.75688 23.2489C5.63362 23.3752 5.53645 23.5246 5.47092 23.6885L2.78342 30.4072C2.71786 30.5711 2.68521 30.7462 2.68735 30.9227C2.6895 31.0992 2.72638 31.2735 2.7959 31.4357C2.86542 31.5979 2.96621 31.7449 3.09252 31.8681C3.21883 31.9914 3.36819 32.0886 3.53206 32.1541L9.0327 34.3545C9.02447 35.9815 9.63889 37.55 10.75 38.7385V75.0407L3.20636 80.9082C2.98539 81.0801 2.82364 81.3168 2.74371 81.5851C2.66377 81.8534 2.66964 82.14 2.7605 82.4048C2.85136 82.6696 3.02267 82.8995 3.25049 83.0622C3.47832 83.2249 3.75128 83.3124 4.03126 83.3125H81.9688C82.2487 83.3124 82.5217 83.2249 82.7495 83.0622C82.9773 82.8995 83.1487 82.6696 83.2395 82.4048C83.3304 82.14 83.3363 81.8534 83.2563 81.5851C83.1764 81.3168 83.0146 81.0801 82.7937 80.9082L75.25 75.0407V38.9688H75.0196C75.6405 38.372 76.1334 37.6552 76.4684 36.8619C76.8034 36.0685 76.9734 35.2153 76.968 34.3541L82.4686 32.1538C82.7993 32.0212 83.0639 31.7628 83.2041 31.4353C83.3444 31.1078 83.3488 30.738 83.2164 30.4072ZM71.2995 27.3342C71.3172 27.3826 71.3377 27.4299 71.3607 27.476L74.0117 32.7783C74.8489 35.1772 73.6733 37.0771 72.0633 37.7211C72.0289 37.7349 71.9948 37.7501 71.9615 37.7669L67.8338 39.8308L62.2279 27.4978L66.3922 25.415C67.5253 24.9738 68.6475 24.955 69.5581 25.3623C70.3588 25.7212 70.9611 26.4028 71.2995 27.3342ZM18.9892 16.125H13.2615L16.125 11.8287L18.9892 16.125ZM18.6365 10.75H24.3642L21.5 15.0463L18.6365 10.75ZM26.875 11.8287L29.7392 16.125H24.0115L26.875 11.8287ZM29.3858 10.75H35.1135L32.25 15.0463L29.3858 10.75ZM37.625 11.8287L40.4892 16.125H34.7615L37.625 11.8287ZM40.1358 10.75H45.8635L43 15.0463L40.1358 10.75ZM48.375 11.8287L51.2392 16.125H45.5115L48.375 11.8287ZM50.8858 10.75H56.6135L53.75 15.0463L50.8858 10.75ZM59.125 11.8287L61.9892 16.125H56.2615L59.125 11.8287ZM61.6358 10.75H67.3635L64.5 15.0463L61.6358 10.75ZM69.875 11.8287L72.7392 16.125H67.0115L69.875 11.8287ZM75.25 15.0463L72.3858 10.75H78.1135L75.25 15.0463ZM5.37501 5.375H80.625V8.0625H5.37501V5.375ZM7.88581 10.75H13.6135L10.75 15.0463L7.88581 10.75ZM67.1875 18.8125V22.4492C66.5555 22.5368 65.9366 22.7016 65.3447 22.9398C65.3101 22.9536 65.2761 22.9689 65.2428 22.9857L59.8678 25.6732C59.5567 25.8287 59.3181 26.0988 59.202 26.4266C59.086 26.7545 59.1015 27.1145 59.2454 27.4311L65.9642 42.2124C66.071 42.4473 66.2431 42.6464 66.46 42.7861C66.677 42.9257 66.9295 43 67.1875 43V68.6354C67.1875 70.1938 67.1875 72.1333 69.0352 73.6118C69.0399 73.6157 69.0447 73.6194 69.0496 73.6231L71.4852 75.5177L65.3566 80.625H20.6434L14.514 75.5177L16.9496 73.6231C16.9544 73.6194 16.9593 73.6157 16.964 73.6118C18.8117 72.1337 18.8117 70.1938 18.8117 68.6354V43C19.0697 43 19.3222 42.9257 19.5391 42.7861C19.7561 42.6464 19.9282 42.4473 20.035 42.2124L26.7537 27.4311C26.8977 27.1146 26.9134 26.7547 26.7975 26.4268C26.6816 26.099 26.4432 25.8289 26.1323 25.6732L20.7573 22.9857C20.7237 22.9689 20.6897 22.9536 20.6553 22.9398C20.0634 22.7016 19.4445 22.5368 18.8125 22.4492V18.8125H67.1875ZM72.5625 78.1189V80.625H69.5559L72.5625 78.1189ZM16.4442 80.625H13.4375V78.1189L16.4442 80.625ZM14.7005 27.3342C15.0389 26.4028 15.6411 25.7217 16.442 25.3629C17.3525 24.9556 18.4744 24.9746 19.6078 25.4157L23.7721 27.4985L18.1662 39.8314L14.0385 37.7669C14.0049 37.7501 13.9713 37.7349 13.9367 37.7211C12.3267 37.0771 11.1511 35.1772 11.9883 32.7783L14.6393 27.476C14.6624 27.4299 14.6828 27.3826 14.7005 27.3342ZM7.4674 25.9344L11.5826 27.5805L9.54819 31.649C9.54584 31.6535 9.54433 31.6586 9.54198 31.6633L5.77813 30.1576L7.4674 25.9344ZM13.4375 40.4712L16.125 41.815V68.6354C16.125 70.3124 16.01 70.9304 15.2924 71.5077L13.4375 72.9503V40.4712ZM10.75 78.4454V80.625H7.94762L10.75 78.4454ZM78.0524 80.625H75.25V78.4454L78.0524 80.625ZM70.7076 71.5077C69.9901 70.9304 69.875 70.3124 69.875 68.6354V41.815L72.5625 40.4712V72.9503L70.7076 71.5077ZM76.458 31.6633C76.4557 31.6586 76.4542 31.6535 76.4518 31.649L74.4176 27.5805L78.5328 25.9344L80.2219 30.1576L76.458 31.6633Z" fill="white"/>
<path d="M24.1875 55.0938V60.1548C23.7647 60.5322 23.4264 60.9947 23.1948 61.5119C22.9632 62.0292 22.8436 62.5895 22.8438 63.1562V69.875C22.4874 69.875 22.1456 70.0166 21.8936 70.2686C21.6416 70.5206 21.5 70.8624 21.5 71.2188C21.5 71.5751 21.6416 71.9169 21.8936 72.1689C22.1456 72.4209 22.4874 72.5625 22.8438 72.5625H63.1562C63.5126 72.5625 63.8544 72.4209 64.1064 72.1689C64.3584 71.9169 64.5 71.5751 64.5 71.2188C64.5 70.8624 64.3584 70.5206 64.1064 70.2686C63.8544 70.0166 63.5126 69.875 63.1562 69.875V63.1562C63.1564 62.5895 63.0368 62.0292 62.8052 61.5119C62.5736 60.9947 62.2353 60.5322 61.8125 60.1548V55.0938C61.8105 53.3124 61.102 51.6047 59.8424 50.3451C58.5828 49.0855 56.8751 48.377 55.0938 48.375H30.9062C29.1249 48.377 27.4172 49.0855 26.1576 50.3451C24.898 51.6047 24.1895 53.3124 24.1875 55.0938ZM25.5312 69.875V63.1562C25.5317 62.8 25.6734 62.4584 25.9253 62.2065C26.1772 61.9546 26.5187 61.8129 26.875 61.8125H28.2188V64.5C28.2188 64.8564 28.3603 65.1982 28.6123 65.4502C28.8643 65.7022 29.2061 65.8438 29.5625 65.8438H56.4375C56.7939 65.8438 57.1357 65.7022 57.3877 65.4502C57.6397 65.1982 57.7812 64.8564 57.7812 64.5V61.8125H59.125C59.4813 61.8129 59.8228 61.9546 60.0747 62.2065C60.3266 62.4584 60.4683 62.8 60.4688 63.1562V69.875H25.5312ZM26.875 55.0938C26.8762 54.025 27.3014 53.0003 28.0571 52.2446C28.8128 51.4889 29.8375 51.0637 30.9062 51.0625H55.0938C56.1625 51.0637 57.1872 51.4889 57.9429 52.2446C58.6986 53.0003 59.1238 54.025 59.125 55.0938V59.125H56.4375C56.0811 59.125 55.7393 59.2666 55.4873 59.5186C55.2353 59.7706 55.0938 60.1124 55.0938 60.4688V63.1562H30.9062V60.4688C30.9062 60.1124 30.7647 59.7706 30.5127 59.5186C30.2607 59.2666 29.9189 59.125 29.5625 59.125H26.875V55.0938Z" fill="white"/>
</svg>
