<svg width="86" height="86" viewBox="0 0 86 86" fill="none" xmlns="http://www.w3.org/2000/svg">
<path d="M72.4643 65.4356C72.2629 65.4352 72.0651 65.3811 71.8907 65.279C71.7164 65.1768 71.5718 65.0301 71.4712 64.8535C71.3707 64.6769 71.3178 64.4766 71.3179 64.2728C71.318 64.069 71.3711 63.8688 71.4718 63.6923C74.092 59.0951 75.6555 53.9601 76.0462 48.6681C76.437 43.3762 75.6449 38.0631 73.7289 33.1231C71.8129 28.1831 68.822 23.743 64.9782 20.132C61.1344 16.5211 56.5363 13.832 51.525 12.2643C51.3808 12.2193 51.2468 12.146 51.1307 12.0486C51.0146 11.9512 50.9185 11.8316 50.8481 11.6966C50.7776 11.5617 50.7341 11.414 50.7201 11.2621C50.706 11.1101 50.7217 10.9569 50.7662 10.811C50.8107 10.6652 50.8832 10.5297 50.9794 10.4122C51.0757 10.2947 51.1939 10.1975 51.3273 10.1262C51.4607 10.055 51.6067 10.011 51.7569 9.99675C51.9071 9.98254 52.0586 9.9984 52.2027 10.0434C57.5434 11.7147 62.4437 14.5811 66.5399 18.4299C70.6361 22.2788 73.8232 27.0113 75.8647 32.2764C77.9062 37.5415 78.7497 43.204 78.3327 48.844C77.9156 54.4839 76.2488 59.9564 73.4557 64.8556C73.355 65.0316 73.2105 65.1777 73.0365 65.2795C72.8626 65.3812 72.6653 65.4351 72.4643 65.4356Z" fill="white" stroke="white" stroke-width="0.5"/>
<path d="M55.1906 80.8412C54.9248 80.8418 54.6671 80.7492 54.4613 80.5791C54.2555 80.409 54.1143 80.1719 54.0619 79.9084C54.0095 79.6448 54.049 79.371 54.1737 79.1336C54.2985 78.8962 54.5007 78.7099 54.746 78.6064C59.5609 76.5502 63.8615 73.4326 67.334 69.4811C67.5363 69.2499 67.8211 69.1095 68.1257 69.0908C68.4303 69.072 68.7298 69.1765 68.9583 69.3811C69.1868 69.5858 69.3256 69.8739 69.3441 70.1821C69.3626 70.4903 69.2594 70.7933 69.0571 71.0244C65.3549 75.2354 60.7707 78.5578 55.6386 80.7494C55.4969 80.8101 55.3445 80.8413 55.1906 80.8412Z" fill="white" stroke="white" stroke-width="0.5"/>
<path d="M35.6975 83.2457C35.639 83.2455 35.5806 83.2409 35.5229 83.2317C34.3994 83.0586 33.2426 82.8203 32.0835 82.5251C31.9372 82.4877 31.7996 82.4216 31.6785 82.3304C31.5575 82.2392 31.4554 82.1247 31.378 81.9936C31.3007 81.8625 31.2497 81.7173 31.2278 81.5662C31.206 81.4151 31.2137 81.2611 31.2507 81.1131C31.2877 80.9651 31.3531 80.8258 31.4432 80.7034C31.5334 80.5809 31.6465 80.4776 31.7761 80.3994C31.9057 80.3211 32.0492 80.2695 32.1986 80.2474C32.3479 80.2253 32.5001 80.2331 32.6464 80.2705C33.7331 80.5483 34.8187 80.7714 35.8709 80.9353C36.1564 80.9804 36.4146 81.1327 36.594 81.3619C36.7734 81.591 36.8609 81.8801 36.839 82.1715C36.8171 82.463 36.6875 82.7354 36.4759 82.9345C36.2644 83.1336 35.9864 83.2447 35.6975 83.2457Z" fill="white" stroke="white" stroke-width="0.5"/>
<path d="M24.3226 79.4221C24.1351 79.4218 23.9505 79.3751 23.785 79.2861C17.6443 75.9912 12.5383 71.0225 9.0454 64.9427C8.88266 64.7076 8.81169 64.4198 8.84616 64.1349C8.88062 63.85 9.01809 63.5881 9.23207 63.3996C9.44605 63.2111 9.72141 63.1094 10.0051 63.1141C10.2888 63.1188 10.5607 63.2295 10.7685 63.4249C10.8593 63.5067 10.9369 63.6023 10.9983 63.7085C14.2754 69.4427 19.08 74.1294 24.8636 77.2337C25.09 77.3555 25.2696 77.5503 25.3739 77.7873C25.4782 78.0243 25.5011 78.2897 25.439 78.5414C25.3769 78.793 25.2334 79.0164 25.0313 79.176C24.8292 79.3356 24.5801 79.4222 24.3237 79.4221H24.3226Z" fill="white" stroke="white" stroke-width="0.5"/>
<path d="M43.7364 83.5828C43.4317 83.5918 43.136 83.4779 42.9143 83.2663C42.6927 83.0546 42.5632 82.7626 42.5543 82.4544C42.5455 82.1461 42.658 81.847 42.8672 81.6227C43.0764 81.3984 43.3651 81.2674 43.6697 81.2585C44.773 81.1895 45.872 81.0619 46.962 80.8761C47.2628 80.8259 47.5709 80.8986 47.8186 81.0781C48.0664 81.2577 48.2334 81.5295 48.2831 81.8338C48.3328 82.138 48.2609 82.4497 48.0834 82.7003C47.9059 82.951 47.6372 83.12 47.3365 83.1703C46.1677 83.3686 44.9894 83.5048 43.8064 83.5782L43.7364 83.5828Z" fill="white" stroke="white" stroke-width="0.5"/>
<path d="M6.2437 56.0963C5.98781 56.0961 5.73933 56.0094 5.53768 55.85C5.33603 55.6906 5.19275 55.4677 5.13057 55.2166C3.75447 49.6631 3.64752 43.8653 4.81787 38.2638C5.98821 32.6622 8.40505 27.4041 11.8848 22.889C15.3646 18.3739 19.8157 14.7204 24.9001 12.2062C29.9845 9.69202 35.5684 8.38318 41.2276 8.37912C41.5323 8.37912 41.8245 8.50156 42.0399 8.71951C42.2553 8.93746 42.3764 9.23306 42.3764 9.54128C42.3764 9.84951 42.2553 10.1451 42.0399 10.3631C41.8245 10.581 41.5323 10.7034 41.2276 10.7034C35.9176 10.7075 30.6783 11.9358 25.9078 14.295C21.1372 16.6542 16.9609 20.0823 13.696 24.3189C10.4311 28.5555 8.16351 33.4892 7.06549 38.7451C5.96747 44.001 6.0679 49.441 7.35914 54.6518C7.43316 54.9508 7.38676 55.2672 7.23015 55.5316C7.07353 55.796 6.81952 55.9866 6.524 56.0615C6.43229 56.0844 6.33818 56.0961 6.2437 56.0963Z" fill="white" stroke="white" stroke-width="0.5"/>
<path d="M35.2426 16.7572C35.0155 16.7571 34.7934 16.6889 34.6045 16.5612C34.4157 16.4335 34.2685 16.252 34.1815 16.0397C34.0946 15.8274 34.0719 15.5937 34.1162 15.3683C34.1605 15.1429 34.2698 14.9359 34.4305 14.7733L39.5998 9.54362L34.4305 4.31389C34.2212 4.0947 34.1054 3.80114 34.108 3.49642C34.1106 3.19171 34.2315 2.90022 34.4444 2.68475C34.6574 2.46928 34.9456 2.34705 35.2468 2.3444C35.5479 2.34176 35.8381 2.4589 36.0548 2.67059L42.0386 8.71616C42.254 8.9341 42.3749 9.22964 42.3749 9.53781C42.3749 9.84597 42.254 10.1415 42.0386 10.3595L36.0548 16.4132C35.9487 16.5221 35.8223 16.6086 35.6828 16.6676C35.5434 16.7267 35.3938 16.7571 35.2426 16.7572Z" fill="white" stroke="white" stroke-width="0.5"/>
<path d="M7.80481 73.7044C7.70389 73.7045 7.60342 73.6908 7.50613 73.6637C7.21206 73.5839 6.96134 73.3892 6.80905 73.1225C6.65676 72.8558 6.61537 72.5388 6.69397 72.2412L8.88463 63.9701C8.96352 63.6726 9.15593 63.4189 9.41957 63.2649C9.68322 63.1108 9.99654 63.0689 10.2907 63.1484L18.4663 65.3647C18.6162 65.4002 18.7574 65.4658 18.8817 65.5576C19.006 65.6494 19.1108 65.7656 19.1898 65.8992C19.2689 66.0327 19.3206 66.181 19.3419 66.3352C19.3632 66.4894 19.3537 66.6464 19.3139 66.7968C19.2741 66.9472 19.2048 67.0879 19.1102 67.2107C19.0156 67.3335 18.8976 67.4358 18.7631 67.5115C18.6287 67.5873 18.4805 67.6349 18.3275 67.6516C18.1745 67.6684 18.0198 67.6538 17.8724 67.6088L10.8053 65.6936L8.91335 72.842C8.84812 73.0892 8.70413 73.3076 8.50371 73.4635C8.30329 73.6194 8.05763 73.7041 7.80481 73.7044Z" fill="white" stroke="white" stroke-width="0.5"/>
<path d="M72.4597 65.4297C72.207 65.4295 71.9615 65.345 71.7611 65.1893C71.5607 65.0336 71.4166 64.8154 71.3511 64.5685L69.1605 56.2974C69.0833 56.0002 69.1257 55.6842 69.2782 55.4185C69.4308 55.1528 69.6812 54.959 69.9746 54.8796C70.268 54.8002 70.5806 54.8415 70.8439 54.9946C71.1073 55.1477 71.3 55.4001 71.3799 55.6966L73.2718 62.8451L80.3389 60.9286C80.6327 60.8506 80.9451 60.8934 81.2077 61.0478C81.4703 61.2021 81.6619 61.4554 81.7404 61.7523C81.8189 62.0491 81.778 62.3653 81.6267 62.6318C81.4753 62.8982 81.2259 63.0931 80.9328 63.174L72.7572 65.3902C72.6602 65.4166 72.5601 65.4299 72.4597 65.4297Z" fill="white" stroke="white" stroke-width="0.5"/>
<path d="M58.9056 60.0593H24.5949C23.9657 60.0584 23.3626 59.8051 22.9177 59.355C22.4728 58.9049 22.2225 58.2948 22.2216 57.6583V36.8858C22.2222 36.2491 22.4724 35.6386 22.9173 35.1883C23.3622 34.7379 23.9655 34.4845 24.5949 34.4836H32.149L33.7331 31.7432C33.9411 31.3741 34.242 31.0673 34.6052 30.8539C34.9684 30.6406 35.3809 30.5284 35.8009 30.5287H47.7042C48.1242 30.5284 48.5367 30.6406 48.8999 30.8539C49.2631 31.0673 49.564 31.3741 49.7719 31.7432L51.2848 34.4452L58.9056 34.4836C59.535 34.4845 60.1383 34.7379 60.5832 35.1883C61.0281 35.6386 61.2783 36.2491 61.2789 36.8858V57.6583C61.278 58.2948 61.0277 58.9049 60.5828 59.355C60.1379 59.8051 59.5348 60.0584 58.9056 60.0593ZM24.5949 36.8079L24.5191 57.6583L58.9056 57.735L58.9814 36.8858C58.9814 36.8653 58.9735 36.8457 58.9593 36.8311C58.9451 36.8166 58.9258 36.8082 58.9056 36.8079H51.3515C50.9315 36.8082 50.5189 36.696 50.1557 36.4827C49.7925 36.2694 49.4917 35.9626 49.2837 35.5935L47.7697 32.8891L35.7963 32.8507L34.2122 35.5911C34.0042 35.9603 33.7033 36.2671 33.3401 36.4804C32.977 36.6937 32.5644 36.8059 32.1444 36.8056L24.5949 36.8079Z" fill="white" stroke="white" stroke-width="0.5"/>
<path d="M41.7502 53.7302C40.4172 53.7304 39.114 53.3307 38.0054 52.5816C36.8969 51.8324 36.0329 50.7676 35.5227 49.5216C35.0124 48.2757 34.8788 46.9046 35.1388 45.5819C35.3989 44.2591 36.0408 43.0441 36.9834 42.0905C37.926 41.1368 39.127 40.4874 40.4345 40.2243C41.742 39.9613 43.0972 40.0964 44.3288 40.6126C45.5604 41.1288 46.6129 42.003 47.3534 43.1244C48.0939 44.2459 48.489 45.5643 48.4888 46.913C48.4867 48.7203 47.776 50.4531 46.5128 51.7311C45.2495 53.0091 43.5368 53.728 41.7502 53.7302ZM41.7502 42.4189C40.8716 42.4186 40.0126 42.682 39.282 43.1757C38.5513 43.6694 37.9818 44.3712 37.6454 45.1923C37.309 46.0135 37.2208 46.9171 37.3921 47.789C37.5634 48.6608 37.9864 49.4617 38.6076 50.0903C39.2288 50.719 40.0203 51.1471 40.882 51.3206C41.7438 51.4941 42.637 51.4052 43.4488 51.0651C44.2606 50.7249 44.9544 50.1489 45.4426 49.4099C45.9307 48.6708 46.1913 47.8018 46.1913 46.913C46.1904 45.7215 45.7222 44.5792 44.8896 43.7366C44.057 42.894 42.9279 42.4201 41.7502 42.4189Z" fill="white" stroke="white" stroke-width="0.5"/>
</svg>
