<svg width="86" height="78" viewBox="0 0 86 78" fill="none" xmlns="http://www.w3.org/2000/svg">
<path d="M76.9038 0.134583H9.09618C4.08046 0.134583 0 4.21521 0 9.23076V46.4422V52.2308C0 57.2463 4.08046 61.3269 9.09618 61.3269H31.0596L28.4134 74.5577H19.8462C18.9328 74.5577 18.1924 75.2981 18.1924 76.2115C18.1924 77.1249 18.9328 77.8653 19.8462 77.8653H66.1538C67.0672 77.8653 67.8076 77.1249 67.8076 76.2115C67.8076 75.2981 67.0672 74.5577 66.1538 74.5577H57.5866L54.9404 61.3269H76.9038C81.9194 61.3269 86 57.2465 86 52.2308V46.4422V9.23076C86 4.21521 81.9195 0.134583 76.9038 0.134583ZM31.7866 74.5577L34.4328 61.3269H51.5672L54.2134 74.5577H31.7866ZM82.6924 52.2308C82.6924 55.4225 80.0957 58.0193 76.9038 58.0193H9.09618C5.90444 58.0193 3.30764 55.4227 3.30764 52.2308V48.0962H82.6922V52.2308H82.6924ZM82.6924 44.7886H3.30764V41.4809H13.2307C14.1441 41.4809 14.8846 40.7405 14.8846 39.8271C14.8846 38.9137 14.1441 38.1733 13.2307 38.1733H3.30764V9.23076C3.30764 6.03902 5.90427 3.44222 9.09618 3.44222H76.9038C80.0956 3.44222 82.6924 6.03885 82.6924 9.23076V44.7886Z" fill="white"/>
</svg>
