<svg width="65" height="79" viewBox="0 0 65 79" fill="none" xmlns="http://www.w3.org/2000/svg">
<path d="M61.5122 45.2552C63.1374 41.192 63.8948 36.8338 63.7356 32.4606C63.5765 28.0873 62.5043 23.7957 60.588 19.8614C58.6718 15.9271 55.9537 12.4371 52.6086 9.61568C49.2634 6.79423 45.3651 4.70369 41.1639 3.47835L35.2598 1.7565C31.7559 0.734066 28.0432 0.661164 24.5018 1.54526C20.9604 2.42935 17.7176 4.23868 15.1053 6.788L13.1736 7.64649C9.93594 9.09711 7.12517 11.3551 5.01083 14.2041C2.89648 17.053 1.54944 20.3974 1.09886 23.9164C0.193165 31.1648 1.28224 38.5229 4.24878 45.1981L4.83885 46.525C3.74554 47.6026 2.98284 48.9701 2.64051 50.4665C2.29819 51.9629 2.39051 53.526 2.90659 54.9717C3.42268 56.4174 4.34105 57.6856 5.5536 58.627C6.76615 59.5684 8.2224 60.1437 9.75093 60.2854C10.9143 65.3146 13.7473 69.8013 17.7878 73.0138C21.8283 76.2263 26.8381 77.9752 32.0001 77.9752C37.1621 77.9752 42.1718 76.2263 46.2123 73.0138C50.2529 69.8013 53.0858 65.3146 54.2492 60.2854C55.6106 60.1589 56.9175 59.6882 58.0467 58.9174C59.176 58.1466 60.0906 57.1011 60.7044 55.8794C61.3181 54.6576 61.611 53.2998 61.5552 51.9336C61.4995 50.5675 61.097 49.238 60.3858 48.0704L61.5122 45.2552ZM6.70398 44.1073C3.93569 37.8788 2.91938 31.0131 3.76453 24.2497C4.15639 21.1897 5.32773 18.2817 7.16625 15.8045C9.00476 13.3272 11.4488 11.3638 14.2641 10.1024L16.4196 9.14494C16.5703 9.07797 16.7074 8.98385 16.8241 8.86729C19.0945 6.59623 21.9338 4.97743 25.0447 4.18044C28.1555 3.38345 31.4234 3.43758 34.5062 4.33717L40.4101 6.05919C44.2515 7.1794 47.8161 9.09075 50.8748 11.6705C53.9336 14.2502 56.419 17.4412 58.1713 21.0385C59.9235 24.6358 60.9039 28.5598 61.0495 32.5585C61.1951 36.5573 60.5027 40.5422 59.0167 44.2575L58.3802 45.8485C57.3438 45.0565 56.13 44.529 54.8438 44.3117V40.1664C54.8438 39.81 54.7023 39.4682 54.4502 39.2162C54.1982 38.9642 53.8565 38.8227 53.5001 38.8227H50.0784C44.5772 38.8191 39.138 37.6608 34.1127 35.4227C29.0874 33.1846 24.5878 29.9166 20.9051 25.8299C20.7698 25.6797 20.6024 25.5618 20.4152 25.4853C20.2281 25.4087 20.0261 25.3753 19.8243 25.3876C19.6225 25.4 19.4261 25.4577 19.2497 25.5565C19.0732 25.6553 18.9214 25.7926 18.8055 25.9583L9.39921 39.3958C9.2411 39.6217 9.15631 39.8907 9.15632 40.1664V44.3117C8.43915 44.4323 7.7418 44.6503 7.08359 44.9596L6.70398 44.1073ZM47.5708 53.5009L45.0135 53.103C36.3891 51.7591 27.6087 51.7591 18.9843 53.103L16.5812 53.4769L11.8438 45.1845V40.59L20.0575 28.8547C23.9665 32.857 28.6356 36.038 33.7908 38.2111C38.946 40.3843 44.4834 41.5056 50.0779 41.5095H52.1563V45.4778L47.5708 53.5009ZM9.15632 57.4652C8.00247 57.1672 6.98036 56.4942 6.25062 55.552C5.52089 54.6098 5.1249 53.4519 5.1249 52.2602C5.1249 51.0684 5.52089 49.9105 6.25062 48.9683C6.98036 48.0262 8.00247 47.3532 9.15632 47.0551V57.4652ZM11.8438 55.125V50.6015L14.5313 55.3046V65.209C12.7639 62.1427 11.8369 58.6643 11.8438 55.125ZM42.6829 72.2175C38.7058 74.6963 33.9905 75.7149 29.3448 75.0988C24.6992 74.4827 20.4124 72.2702 17.2188 68.8405V56.0979L19.3989 55.7585C27.7493 54.4572 36.2509 54.4572 44.6013 55.7585L46.7813 56.0979V68.8405C45.5687 70.1406 44.1908 71.2759 42.6829 72.2175ZM49.4688 65.209V55.5985L52.1563 50.8954V55.125C52.1633 58.6643 51.2362 62.1427 49.4688 65.209ZM54.8438 57.4657V47.0551C55.9977 47.3532 57.0198 48.0262 57.7495 48.9683C58.4793 49.9105 58.8752 51.0684 58.8752 52.2602C58.8752 53.4519 58.4793 54.6098 57.7495 55.552C57.0198 56.4942 55.9977 57.1672 54.8438 57.4652V57.4657Z" fill="white" stroke="white"/>
</svg>
